<svg fill="none" height="512" viewBox="0 0 24 24" width="512" xmlns="http://www.w3.org/2000/svg" xmlns:xlink="http://www.w3.org/1999/xlink"><clipPath id="clip0"><path d="m0 0h24v24h-24z"/></clipPath><g clip-path="url(#clip0)" clip-rule="evenodd" fill-rule="evenodd"><path d="m14.2653.318663c-1.2603-.356302-2.3221.671706-2.3221 1.831347 0 .41762-.3385.75616-.7561.75616s-.7562-.33854-.7562-.75616c0-1.159641-1.06178-2.1876489-2.32209-1.831346-.89352.252606-1.74189.612326-2.53031 1.064266-1.07831.6181-1.10477 2.02133-.32255 2.80355.2953.2953.2953.77408 0 1.06938s-.77408.2953-1.06938 0c-.78222-.78223-2.18545-.75576-2.80356.32254-.451943.78843-.811669 1.63681-1.064278 2.53034-.3563023 1.26031.671705 2.32206 1.831348 2.32206.41761 0 .75616.3386.75616.7562s-.33854.7562-.75616.7562c-1.159614 0-2.1876621 1.0617-1.831356 2.322.281799.9968.696896 1.9374 1.224596 2.8012.63577 1.0408 2.00877 1.0516 2.77847.2819.32154-.3216.84286-.3216 1.1644 0 .32846.3284.32034.8634-.01793 1.1818-.74627.7023-.71639 2.0089.28833 2.5609.73764.4053 1.52563.7307 2.35226.9643 1.26034.3564 2.32205-.6717 2.32205-1.8313 0-.4176.3386-.7562.7562-.7562s.7561.3386.7561.7562c0 1.1596 1.0618 2.1876 2.3221 1.8313.8935-.2526 1.7419-.6123 2.5303-1.0642 1.0783-.6181 1.1048-2.0213.3226-2.8035-.2953-.2953-.2953-.7741 0-1.0694s.7741-.2953 1.0694 0c.7822.7822 2.1854.7557 2.8035-.3225.452-.7885.8117-1.6369 1.0643-2.5304.3563-1.2604-.6717-2.3221-1.8313-2.3221-.4177 0-.7562-.3386-.7562-.7562s.3385-.7562.7562-.7562c1.1596 0 2.1876-1.06174 1.8313-2.32206-.2526-.89353-.6123-1.74191-1.0643-2.53034-.6181-1.0783-2.0213-1.10477-2.8035-.32254-.2953.2953-.7741.2953-1.0694 0s-.2953-.77408 0-1.06938c.7822-.78222.7557-2.18545-.3226-2.80355-.7884-.451941-1.6368-.81166-2.5303-1.064267z" fill="#4caf50"/><path d="m11.1871 2.90617v16.56163c-.4177 0-.7562.3386-.7562.7562 0 1.1596-1.06171 2.1877-2.32205 1.8313-.82663-.2336-1.61462-.559-2.35226-.9643-1.00472-.552-1.0346-1.8586-.28833-2.5609.33827-.3184.34639-.8534.01793-1.1818-.32154-.3216-.84286-.3216-1.1644 0-.7697.7697-2.1427.7589-2.77847-.2819-.5277-.8638-.942797-1.8044-1.224596-2.8012-.3563061-1.2603.671742-2.322 1.831356-2.322.41762 0 .75616-.3386.75616-.7562s-.33855-.7562-.75616-.7562c-1.159643 0-2.1876503-1.06175-1.831348-2.32206.252609-.89353.612335-1.74191 1.064278-2.53034.61811-1.0783 2.02134-1.10477 2.80356-.32254.2953.2953.77408.2953 1.06938 0s.2953-.77408 0-1.06938c-.78222-.78222-.75576-2.18545.32255-2.80355.78842-.45194 1.63679-.81166 2.53031-1.064267 1.26031-.356302 2.32209.671706 2.32209 1.831347 0 .41762.3385.75616.7562.75616z" fill="#39943c"/><path d="m7.73329 9.62121c.61062-.32209.84451-1.07819.52242-1.68881-.19325-.36637-.05292-.82003.31345-1.01328.36637-.19326.82003-.05292 1.01329.31345.70855 1.34335.19403 3.00683-1.14932 3.71533-.36637.1933-.82003.053-1.01329-.3134-.19325-.3664-.05292-.82003.31345-1.01329z" fill="#257d28"/><path d="m12.227 17.6768c-1.2692 1.2692-1.2692 3.3269 0 4.5962 1.2692 1.2692 3.327 1.2692 4.5962 0l4.9497-4.9498c1.2692-1.2692 1.2692-3.327 0-4.5962s-3.327-1.2692-4.5962 0z" fill="#eceff1"/><path d="m15.2322 15.7323 3.5355 3.5355.5303.5303 2.4749-2.4749c1.2692-1.2692 1.2692-3.3269 0-4.5962-1.2692-1.2692-3.327-1.2692-4.5962 0l-2.4749 2.4749z" fill="#354d58"/><path d="m21.773 12.7271-9.546 9.5459c-1.2692-1.2692-1.2692-3.327 0-4.5962l4.9497-4.9498c1.2692-1.2692 3.327-1.2692 4.5962 0 0 .0001 0 .0001.0001.0001z" fill="#d4d6d9"/><path d="m17 17.5-1.7678-1.7677-.5304-.5304 2.4749-2.4749c1.2692-1.2692 3.327-1.2692 4.5962 0v.0001z" fill="#273135"/></g></svg>