<?xml version="1.0" encoding="UTF-8"?>
<svg version="1.1" xmlns="http://www.w3.org/2000/svg" width="512" height="512">
<path d="M0 0 C0.76121658 -0.00014603 1.52243317 -0.00029205 2.30671692 -0.0004425 C4.82275238 0.00025415 7.3387138 0.00803501 9.85473633 0.01586914 C11.59922749 0.0177342 13.34371918 0.01915769 15.08821106 0.02015686 C19.6798548 0.02397513 24.2714669 0.03379955 28.86309814 0.04486084 C33.54845756 0.05508978 38.23382209 0.05965766 42.91918945 0.06469727 C52.11256272 0.07542242 61.30591252 0.09249058 70.49926758 0.11352539 C70.50735443 1.23501984 70.51544128 2.35651428 70.52377319 3.51199341 C70.60159497 14.13278547 70.68942202 24.75345507 70.78679466 35.37408638 C70.83652805 40.83294305 70.88285829 46.2917825 70.92114258 51.75073242 C70.95828766 57.02874977 71.00472282 62.3066143 71.05733109 67.58449936 C71.07572106 69.58806526 71.09088439 71.59166372 71.10261154 73.59527969 C71.23198528 94.95445416 72.21914668 114.53494202 87.49926758 131.11352539 C105.51647425 147.7195942 127.10171005 147.42756568 150.12426758 147.37915039 C152.40242555 147.38050079 154.68058324 147.38244443 156.95874023 147.38494873 C161.71251188 147.38788235 166.46620791 147.38365937 171.2199707 147.37426758 C177.27839174 147.36287421 183.3366355 147.36944317 189.39505005 147.38141251 C194.09311227 147.38867888 198.79113324 147.38632134 203.48919678 147.38115692 C205.72165956 147.37983361 207.95412623 147.38142128 210.18658447 147.38611603 C232.17662099 147.42222438 252.38384482 146.88843952 269.49926758 131.11352539 C285.5427251 113.70673916 285.78279681 92.92330299 285.91333008 70.62133789 C285.93207889 68.57867687 285.95165494 66.53602328 285.97201538 64.49337769 C286.02295077 59.16380233 286.06278095 53.83420197 286.10015869 48.5045166 C286.14044274 43.04730237 286.1914227 37.59018866 286.24145508 32.13305664 C286.33775629 21.45995057 286.422305 10.78678722 286.49926758 0.11352539 C296.54822985 0.020706 306.59708957 -0.05030015 316.64639378 -0.0937233 C321.31308229 -0.11456789 325.97947678 -0.14282812 330.64599609 -0.18823242 C335.15233677 -0.23180214 339.65839523 -0.25563524 344.16493034 -0.26598358 C345.88129047 -0.27335503 347.59763573 -0.28774985 349.3138752 -0.30939484 C351.72439668 -0.33857759 354.13376292 -0.34242454 356.54443359 -0.34057617 C357.24862427 -0.35495728 357.95281494 -0.36933838 358.67834473 -0.38415527 C364.67544977 -0.33463627 368.75659127 1.65955185 373.20629883 5.64086914 C377.29675403 10.85872895 378.74652223 14.78243719 378.76669312 21.39350891 C378.77948807 23.29228287 378.77948807 23.29228287 378.7925415 25.22941589 C378.79184254 26.6247865 378.79091951 28.02015701 378.78979492 29.41552734 C378.79578197 30.89095397 378.80258792 32.36637748 378.81015015 33.84179688 C378.82780049 37.84399322 378.83250514 41.846104 378.83378172 45.8483355 C378.83520454 48.35086151 378.83947664 50.85336584 378.84477615 53.35588646 C378.86327395 62.09241489 378.87144717 70.82888233 378.86987305 79.56542969 C378.86867204 87.69921086 378.88976692 95.8327265 378.92136037 103.9664405 C378.94754502 110.95770395 378.95823941 117.94888079 378.95696223 124.94019288 C378.95645319 129.11219921 378.96210374 133.28396956 378.98331833 137.4559269 C379.00273751 141.38193674 379.00280039 145.30748643 378.98828506 149.23351288 C378.98620033 150.67017733 378.99087788 152.10687087 379.00300598 153.54348564 C379.11995895 168.36295345 379.11995895 168.36295345 374.49926758 174.11352539 C367.33478024 181.03232163 359.76862021 180.96819371 350.27905273 180.87542725 C348.7350107 180.88234768 347.19097855 180.89188171 345.64696693 180.90379071 C341.42021692 180.92877188 337.19428269 180.91648915 332.96753025 180.8978734 C328.40300106 180.88427654 323.8386104 180.90526262 319.27410889 180.92175293 C310.33866296 180.94841537 301.40351964 180.9426778 292.46806192 180.92527708 C285.20526556 180.9117199 277.94255393 180.90989204 270.67974854 180.91641998 C269.12849775 180.91779908 269.12849775 180.91779908 267.54590857 180.91920604 C265.44493593 180.92112441 263.34396332 180.92306969 261.24299073 180.92504159 C241.54788594 180.94214577 221.85294878 180.92248687 202.15787148 180.89023939 C185.2631227 180.86343327 168.36862128 180.86808956 151.47387695 180.89575195 C131.84866196 180.92787006 112.22359385 180.94049786 92.59835625 180.92207837 C90.50516639 180.9201671 88.41197652 180.91828088 86.31878662 180.91641998 C85.28893068 180.91549433 84.25907474 180.91456868 83.19801104 180.91361497 C75.94498008 180.90843712 68.69204239 180.91717293 61.43902588 180.9312973 C52.59845163 180.94813501 43.75819697 180.94355131 34.91765928 180.91161284 C30.40805951 180.89585716 25.89899235 180.88964628 21.38939667 180.90950775 C17.25876842 180.92742484 13.12916497 180.91750136 8.99862933 180.88564244 C7.50683373 180.87895617 6.01495103 180.88231448 4.52321172 180.89689717 C-4.32576151 180.97674632 -10.92414501 180.46645147 -17.50073242 174.11352539 C-22.80675355 167.49993766 -22.06845501 159.57316129 -22.01831055 151.47094727 C-22.02373792 149.99507458 -22.03086402 148.51920732 -22.03955078 147.04335022 C-22.05771421 143.05360828 -22.05074577 139.06428224 -22.03803444 135.07453346 C-22.02787038 130.88891141 -22.03730954 126.70332372 -22.0435791 122.5177002 C-22.05084563 115.4901697 -22.04129401 108.46280763 -22.0222168 101.43530273 C-22.00044989 93.32358599 -22.00750197 85.21227148 -22.02952242 77.10056448 C-22.04770487 70.12195706 -22.05022088 63.14347036 -22.03976774 56.1648469 C-22.0335484 52.00297362 -22.03265402 47.84128907 -22.0459137 43.6794281 C-22.05751317 39.76564753 -22.04937249 35.8523829 -22.02633667 31.93865776 C-22.02107132 30.50684399 -22.02252597 29.07498641 -22.03138733 27.64319038 C-22.0815936 18.70319046 -21.81774313 12.00613753 -15.68432617 5.05493164 C-15.10811523 4.59989258 -14.5319043 4.14485352 -13.93823242 3.67602539 C-13.35944336 3.20293945 -12.7806543 2.72985352 -12.18432617 2.24243164 C-8.34953571 -0.32892437 -4.42128056 -0.02212127 0 0 Z " fill="#32B975" transform="translate(77.500732421875,107.886474609375)"/>
<path d="M0 0 C1.17387268 -0.00700928 2.34774536 -0.01401855 3.55718994 -0.02124023 C7.40556069 -0.03872625 11.25318535 -0.02723003 15.1015625 -0.01367188 C17.79476508 -0.01456498 20.48795475 -0.02024905 23.18115234 -0.02526855 C28.81290646 -0.03251846 34.44444985 -0.02302765 40.07617188 -0.00390625 C46.56049936 0.01785761 53.04432353 0.01080433 59.52863884 -0.01121187 C65.12478336 -0.02944224 70.72077755 -0.03188718 76.31694221 -0.0214572 C79.64671312 -0.0152638 82.97606092 -0.01587203 86.30584717 -0.02760315 C90.02194672 -0.03782385 93.73709577 -0.02218868 97.453125 0 C98.53708557 -0.00809692 99.62104614 -0.01619385 100.737854 -0.02453613 C112.17666815 0.10124657 121.41733 3.58532403 129.7265625 11.51757812 C138.69157352 20.90864907 141.33927471 31.05511703 141.24414062 43.79101562 C141.2511499 44.96488831 141.25815918 46.13876099 141.26538086 47.34820557 C141.28286688 51.19657631 141.27137065 55.04420098 141.2578125 58.89257812 C141.2587056 61.5857807 141.26438967 64.27897038 141.26940918 66.97216797 C141.27665909 72.60392209 141.26716827 78.23546547 141.24804688 83.8671875 C141.22628301 90.35151499 141.23333629 96.83533915 141.2553525 103.31965446 C141.27358287 108.91579899 141.2760278 114.51179318 141.26559782 120.10795784 C141.25940443 123.43772875 141.26001266 126.76707655 141.27174377 130.09686279 C141.28196447 133.81296235 141.2663293 137.52811139 141.24414062 141.24414062 C141.25223755 142.3281012 141.26033447 143.41206177 141.26867676 144.52886963 C141.14289405 155.96768378 137.65881659 165.20834562 129.7265625 173.51757812 C120.33549155 182.48258914 110.18902359 185.13029034 97.453125 185.03515625 C96.27925232 185.04216553 95.10537964 185.0491748 93.89593506 185.05639648 C90.04756431 185.0738825 86.19993965 185.06238628 82.3515625 185.04882812 C79.65835992 185.04972123 76.96517025 185.0554053 74.27197266 185.0604248 C68.64021854 185.06767471 63.00867515 185.0581839 57.37695312 185.0390625 C50.89262564 185.01729864 44.40880147 185.02435192 37.92448616 185.04636812 C32.32834164 185.06459849 26.73234745 185.06704343 21.13618279 185.05661345 C17.80641188 185.05042005 14.47706408 185.05102828 11.14727783 185.0627594 C7.43117828 185.0729801 3.71602923 185.05734493 0 185.03515625 C-1.08396057 185.04325317 -2.16792114 185.0513501 -3.284729 185.05969238 C-14.72354315 184.93390968 -23.964205 181.44983222 -32.2734375 173.51757812 C-41.23844852 164.12650718 -43.88614971 153.98003922 -43.79101562 141.24414062 C-43.7980249 140.07026794 -43.80503418 138.89639526 -43.81225586 137.68695068 C-43.82974188 133.83857994 -43.81824565 129.99095527 -43.8046875 126.14257812 C-43.8055806 123.44937555 -43.81126467 120.75618587 -43.81628418 118.06298828 C-43.82353409 112.43123416 -43.81404327 106.79969078 -43.79492188 101.16796875 C-43.77315801 94.68364126 -43.78021129 88.1998171 -43.8022275 81.71550179 C-43.82045787 76.11935726 -43.8229028 70.52336307 -43.81247282 64.92719841 C-43.80627943 61.5974275 -43.80688766 58.2680797 -43.81861877 54.93829346 C-43.82883947 51.2221939 -43.8132043 47.50704486 -43.79101562 43.79101562 C-43.79911255 42.70705505 -43.80720947 41.62309448 -43.81555176 40.50628662 C-43.68976905 29.06747247 -40.20569159 19.82681063 -32.2734375 11.51757812 C-22.88236655 2.55256711 -12.73589859 -0.09513409 0 0 Z M42.7265625 47.51757812 C41.30930014 48.70668064 41.30930014 48.70668064 41.61303711 52.11938477 C41.61319625 53.72217669 41.61889187 55.32497373 41.62890625 56.92773438 C41.63102867 58.19078651 41.63102867 58.19078651 41.63319397 59.47935486 C41.63880987 62.17963147 41.65136502 64.8798264 41.6640625 67.58007812 C41.66907545 69.40624881 41.67363871 71.23242078 41.67773438 73.05859375 C41.68878446 77.54495355 41.70605971 82.03125197 41.7265625 86.51757812 C40.69249268 86.50710449 39.65842285 86.49663086 38.59301758 86.48583984 C34.74458295 86.44955068 30.89616336 86.42664527 27.04760742 86.40771484 C25.38417006 86.39767756 23.72075025 86.38404481 22.05737305 86.36669922 C19.66190245 86.34235064 17.26666582 86.33107224 14.87109375 86.32226562 C14.1313179 86.31194305 13.39154205 86.30162048 12.62934875 86.29098511 C8.5536274 86.29010599 5.34686871 86.58334448 1.7265625 88.51757812 C-0.35320462 90.67829279 -0.35320462 90.67829279 -1.2734375 93.51757812 C-0.51171059 97.04922108 0.16527662 98.95629225 2.7265625 101.51757812 C6.57722188 102.98678666 10.71392727 102.64336063 14.7734375 102.61523438 C15.54463928 102.61381943 16.31584106 102.61240448 17.1104126 102.61094666 C19.56583588 102.60536346 22.02116692 102.59281408 24.4765625 102.58007812 C26.14452993 102.57506095 27.81249879 102.57049842 29.48046875 102.56640625 C33.56253537 102.55539954 37.64453331 102.53814649 41.7265625 102.51757812 C41.70561523 103.6174707 41.68466797 104.71736328 41.66308594 105.85058594 C41.59062615 109.93557694 41.54474135 114.02051126 41.50683594 118.10595703 C41.486734 119.87330684 41.45944778 121.64059026 41.42480469 123.40771484 C41.37622241 125.94971097 41.35358024 128.49082709 41.3359375 131.03320312 C41.31529236 131.82188782 41.29464722 132.61057251 41.27337646 133.42315674 C41.27191451 137.00621939 41.41127137 139.08864139 43.56347656 142.01660156 C46.51794546 144.06672287 48.20387073 144.10469342 51.7265625 143.51757812 C54.57436869 141.28551382 55.57653916 139.96764814 56.7265625 136.51757812 C56.81138023 133.93127588 56.84254479 131.37279756 56.82421875 128.78710938 C56.8228038 128.03668869 56.82138885 127.28626801 56.81993103 126.5131073 C56.8143381 124.11872352 56.80178694 121.72443359 56.7890625 119.33007812 C56.78404658 117.70573052 56.77948384 116.08138144 56.77539062 114.45703125 C56.76437098 110.47717744 56.74711123 106.49739369 56.7265625 102.51757812 C57.72510254 102.53328857 58.72364258 102.54899902 59.75244141 102.56518555 C63.47599137 102.61970432 67.1995064 102.65400747 70.92333984 102.68237305 C72.53147322 102.69740989 74.13956594 102.71784484 75.74755859 102.74389648 C78.06618314 102.78050635 80.38426299 102.79735534 82.703125 102.81054688 C83.41586578 102.82603073 84.12860657 102.84151459 84.86294556 102.85746765 C89.5565994 102.85903111 92.74914711 102.01284702 96.7265625 99.51757812 C98.14698071 96.67674171 98.04108522 94.66280535 97.7265625 91.51757812 C95.49449819 88.66977194 94.17663251 87.66760146 90.7265625 86.51757812 C88.14026026 86.4327604 85.58178194 86.40159583 82.99609375 86.41992188 C81.87046272 86.4220443 81.87046272 86.4220443 80.72209167 86.42420959 C78.3277079 86.42980253 75.93341797 86.44235369 73.5390625 86.45507812 C71.91471489 86.46009404 70.29036582 86.46465679 68.66601562 86.46875 C64.68616181 86.47976964 60.70637806 86.49702939 56.7265625 86.51757812 C56.73703613 85.51380127 56.74750977 84.51002441 56.75830078 83.47583008 C56.79459703 79.73921294 56.8174979 76.0026113 56.83642578 72.26586914 C56.84646146 70.6509336 56.86009301 69.03601612 56.87744141 67.42114258 C56.90179715 65.09516938 56.91306997 62.76943718 56.921875 60.44335938 C56.93219757 59.72545731 56.94252014 59.00755524 56.95315552 58.26789856 C56.95404838 54.24677926 56.65157909 51.08128254 54.7265625 47.51757812 C49.59773238 43.79917629 47.91856134 44.18937374 42.7265625 47.51757812 Z " fill="#3FBC6E" transform="translate(207.2734375,55.482421875)"/>
<path d="M0 0 C44.88 0 89.76 0 136 0 C136 30.36 136 60.72 136 92 C91.12 92 46.24 92 0 92 C0 61.64 0 31.28 0 0 Z " fill="#09B18B" transform="translate(188,364)"/>
<path d="M0 0 C19.8 0 39.6 0 60 0 C60.13559657 17.96793584 60.24605694 35.93543306 60.31087303 53.90373898 C60.34177216 62.24729201 60.38387656 70.59050388 60.45263672 78.93383789 C60.51256034 86.20843525 60.55117782 93.48278545 60.56453097 100.75762278 C60.57233306 104.60745862 60.59058534 108.4565876 60.63438034 112.30619621 C60.67532758 115.93513553 60.68762538 119.56308181 60.67864609 123.19223022 C60.68106511 125.14798196 60.71323799 127.10362729 60.746521 129.05909729 C60.69183844 136.89512817 59.60230835 142.28559628 54 148 C49.59773503 151.67910253 45.36243599 152.49456282 39.68774414 152.45410156 C38.99421844 152.45468567 38.30069275 152.45526978 37.58615112 152.45587158 C35.31862403 152.453109 33.05245052 152.42210753 30.78515625 152.390625 C29.20333067 152.38315602 27.62149577 152.37746619 26.03965759 152.37347412 C21.89498939 152.35826929 17.75089015 152.31903299 13.60644531 152.2746582 C9.36986994 152.23359351 5.1332018 152.21543931 0.89648438 152.1953125 C-7.4026036 152.15253279 -15.70123083 152.08434515 -24 152 C-24.23175984 139.71756951 -24.40941149 127.43565944 -24.51812172 115.15148735 C-24.57030022 109.44721092 -24.64105933 103.74443076 -24.75439453 98.04101562 C-24.86310096 92.53604587 -24.92285122 87.03251434 -24.94877243 81.52655411 C-24.96724202 79.42680333 -25.00331209 77.32713086 -25.05730057 75.22799301 C-25.46514662 58.71266463 -25.46514662 58.71266463 -21.79812622 54.42614746 C-19.21907696 52.87357691 -16.85317334 51.92088405 -14 51 C-5.21081013 43.51192887 -2.40031878 35.20255025 -1 24 C-0.67 16.08 -0.34 8.16 0 0 Z " fill="#0EB288" transform="translate(364,304)"/>
<path d="M0 0 C18.48 0 36.96 0 56 0 C56.495 11.88 56.495 11.88 57 24 C59.24281671 36.33549193 61.4811455 43.90897367 71 52 C73.97 53.65 76.94 55.3 80 57 C80 88.35 80 119.7 80 152 C69.130625 152.12375 58.26125 152.2475 47.0625 152.375 C43.64656494 152.42962402 40.23062988 152.48424805 36.71118164 152.54052734 C33.98585421 152.55806068 31.260511 152.57334771 28.53515625 152.5859375 C27.83805038 152.60161774 27.14094452 152.61729797 26.42271423 152.63345337 C18.66675717 152.79899698 12.30462727 152.68227436 5.81321716 147.97549438 C-0.69205422 140.88802171 -0.55925837 134.7655203 -0.45410156 125.44555664 C-0.45297196 124.07508375 -0.45360915 122.70460845 -0.45587158 121.33413696 C-0.45701527 117.62990977 -0.43356275 113.92620483 -0.40557575 110.22209859 C-0.38050397 106.34506865 -0.37821556 102.46802562 -0.37347412 98.59092712 C-0.36106124 91.25639844 -0.3282627 83.92210936 -0.28807616 76.587686 C-0.24330571 68.23463307 -0.22135819 59.88156846 -0.20129442 51.52842534 C-0.15952834 34.35212134 -0.08619735 17.17614722 0 0 Z " fill="#0EB288" transform="translate(92,304)"/>
<path d="M0 0 C60.72 0 121.44 0 184 0 C184 31 184 31 178 40 C171.62053169 45.50876402 163.85235056 44.57913285 155.84423828 44.54931641 C154.30116798 44.55801914 152.75810631 44.56838827 151.21505737 44.58029175 C147.03721693 44.60700481 142.85973909 44.60823669 138.68182993 44.60316515 C135.18792608 44.60102099 131.69409488 44.61080458 128.20020664 44.62037599 C119.95389073 44.64254348 111.70775704 44.64345427 103.46142578 44.63134766 C94.9684755 44.61927023 86.47618808 44.64388884 77.98335087 44.68648779 C70.67862811 44.72177327 63.37411582 44.73371414 56.06931102 44.72721231 C51.71221372 44.72359446 47.35558923 44.72877888 42.99856949 44.75664139 C38.89914601 44.78187712 34.80075204 44.77783855 30.70134354 44.75181961 C29.20221095 44.74710566 27.70300501 44.75249467 26.2039566 44.76906586 C18.52141786 44.84782804 12.24643624 44.60945407 5.8174572 39.96991539 C-5.23719041 27.98794384 0 18.53869755 0 0 Z " fill="#1BB481" transform="translate(164,304)"/>
</svg>
