<?xml version="1.0" encoding="utf-8"?>
<!-- Generator: Adobe Illustrator 24.0.0, SVG Export Plug-In . SVG Version: 6.00 Build 0)  -->
<svg version="1.1" xmlns="http://www.w3.org/2000/svg" xmlns:xlink="http://www.w3.org/1999/xlink" x="0px" y="0px"
	 viewBox="0 0 256 256" enable-background="new 0 0 256 256" xml:space="preserve">
<g id="Layer_2">
</g>
<g id="Layer_1">
	<g>
	</g>
	<g>
		<path fill="#AFAFAF" d="M207.191,128.069l10.705,6.177c-3.74,9.971-9.093,19.155-15.749,27.224l-10.696-6.177
			c-12.118,14.02-28.791,23.973-47.728,27.568v12.353c-10.299,1.714-21.122,1.718-31.444,0v-12.353
			c-18.937-3.595-35.61-13.549-47.728-27.568l-10.696,6.177c-6.657-8.07-12.009-17.253-15.749-27.224l10.705-6.177
			c-6.231-17.905-6.158-37.44,0-55.136l-10.705-6.177c3.74-9.971,9.093-19.155,15.749-27.224l10.696,6.177
			c12.118-14.02,28.791-23.973,47.728-27.568V5.787c10.3-1.714,21.122-1.717,31.444,0V18.14
			c18.937,3.595,35.61,13.549,47.728,27.568l10.696-6.177c6.657,8.069,12.009,17.253,15.749,27.224l-10.705,6.177
			C213.422,90.837,213.349,110.372,207.191,128.069z"/>
		<path fill="#EFC01F" d="M128,37.304c-34.904,0-63.197,28.293-63.197,63.197c0,12.851,3.84,24.815,10.433,34.786
			c9.174,13.902,23.33,23.312,38.056,26.681c9.618,2.309,19.807,2.309,29.416,0c14.626-3.36,28.809-12.679,38.056-26.681
			c6.829-10.333,10.433-22.343,10.433-34.786C191.197,65.596,162.904,37.304,128,37.304z"/>
		<path fill="#7C7B7A" d="M137.973,84.265h-19.648l0.004-5.686c0.001-1.913,1.552-3.463,3.465-3.463h10.138
			c1.23,0,2.441-0.297,3.531-0.866l4.235-2.211C141.84,76.316,140.946,81.098,137.973,84.265z"/>
		<path fill="#FFB69F" d="M128.147,101.321L128.147,101.321c-5.425,0-9.822-4.397-9.822-9.822v-7.235h19.644v7.235
			C137.969,96.924,133.571,101.321,128.147,101.321z"/>
		<path fill="#FC5D3D" d="M146.765,112.247c-2.509,2.463-4.057,5.896-4.057,9.681v40.039c-9.609,2.309-19.798,2.309-29.416,0
			v-40.039c0-3.786-1.549-7.218-4.057-9.681c1.241-6.231,6.738-10.922,13.322-10.922h10.886
			C140.027,101.324,145.524,106.016,146.765,112.247z"/>
		<path fill="#7C7B7A" d="M104.237,91.284H84.589l0.004-5.686c0.001-1.913,1.552-3.463,3.465-3.463h10.138
			c1.23,0,2.441-0.297,3.531-0.866l4.235-2.211C108.104,83.334,107.21,88.117,104.237,91.284z"/>
		<path fill="#FFB69F" d="M94.411,108.34L94.411,108.34c-5.425,0-9.822-4.397-9.822-9.822v-7.235h19.644v7.235
			C104.233,103.942,99.836,108.34,94.411,108.34z"/>
		<path fill="#7C7B7A" d="M171.709,91.284h-19.648l0.004-5.686c0.001-1.913,1.552-3.463,3.465-3.463h10.138
			c1.23,0,2.441-0.297,3.531-0.866l4.235-2.211C175.576,83.334,174.682,88.117,171.709,91.284z"/>
		<path fill="#FFB69F" d="M161.883,108.34L161.883,108.34c-5.425,0-9.822-4.397-9.822-9.822v-7.235h19.644v7.235
			C171.705,103.942,167.307,108.34,161.883,108.34z"/>
		<path fill="#72C2E9" d="M113.292,121.928v40.039c-14.726-3.369-28.881-12.779-38.056-26.681v-13.358
			c0-7.508,6.086-13.585,13.585-13.585h10.886c3.713,0,7.082,1.494,9.528,3.903C111.743,114.71,113.292,118.143,113.292,121.928z"/>
		<path fill="#72C2E9" d="M180.764,121.928v13.358c-9.247,14.002-23.429,23.321-38.056,26.681v-40.039
			c0-3.786,1.549-7.218,4.057-9.681c2.445-2.409,5.814-3.903,9.528-3.903h10.886C174.678,108.343,180.764,114.42,180.764,121.928z"
			/>
		<path fill="#FFB69F" d="M99.5,251.5H56.75v-7.07L9.91,197.58c-1.8-1.79-2.81-4.22-2.81-6.77l-0.32-39.08
			c0-4.82,3.91-8.72,8.73-8.73c4.81,0,8.72,3.91,8.72,8.73l0.32,28.33c0,2.02,0.82,3.92,2.19,5.29l12.29,12.3l14.93,14.93
			c3.35,3.34,9.06,3.59,12.46,0.3c3.52-3.4,3.55-9.01,0.11-12.46l-11.05-11.05c-3.07-3.07-3.25-8.07-0.24-11.2
			c3.09-3.26,8.23-3.28,11.36-0.14c0.08,0.08,23.584,23.566,23.66,23.65c6.58,6.734,9.146,14.18,9.23,23.32L99.5,251.5z"/>
		<path fill="#FFB69F" d="M249.22,151.73l-0.32,39.08c0,2.55-1.01,4.98-2.81,6.77l-46.84,46.85v7.07H156.5l0.01-26.5
			c0.084-9.14,2.65-16.586,9.23-23.32c0.077-0.084,23.579-23.57,23.66-23.65c3.13-3.14,8.27-3.12,11.36,0.14
			c3.01,3.13,2.83,8.13-0.24,11.2l-11.05,11.05c-3.44,3.45-3.41,9.06,0.11,12.46c3.4,3.29,9.11,3.04,12.46-0.3
			c17.923-17.923,12.44-12.438,27.22-27.23c1.37-1.37,2.19-3.26,2.19-5.29l0.32-28.33c0-4.82,3.91-8.73,8.72-8.73
			C245.31,143.01,249.22,146.91,249.22,151.73z"/>
		<g>
			<path fill="#FBE0E2" d="M92.345,246.842c-1.381,0-2.5-1.119-2.5-2.5v-2.966c0-1.381,1.119-2.5,2.5-2.5s2.5,1.119,2.5,2.5v2.966
				C94.845,245.723,93.726,246.842,92.345,246.842z M92.345,233.875c-1.381,0-2.5-1.119-2.5-2.5v-5.837
				c0-7.54-1.947-12.565-6.722-17.346l-23.359-23.34c-0.977-0.976-0.978-2.559-0.001-3.536c0.977-0.977,2.559-0.977,3.536-0.001
				l23.361,23.342c5.662,5.669,8.186,12.109,8.186,20.881v5.837C94.845,232.756,93.726,233.875,92.345,233.875z"/>
		</g>
		<g>
			<path fill="#FBE0E2" d="M190.327,243.229c-0.977-0.976-0.977-2.559,0-3.535l48.953-48.953l0.185-27.033
				c0.011-1.374,1.128-2.48,2.5-2.48c0.007,0,0.013,0,0.021,0c1.38,0.011,2.49,1.139,2.479,2.52l-0.217,27.025
				c0,1.331-0.51,2.583-1.436,3.506l-48.95,48.95C192.886,244.206,191.304,244.206,190.327,243.229z M242.045,156.229
				c-0.006,0-0.013,0-0.02,0c-1.381-0.011-2.491-1.139-2.48-2.52l0.016-2c0.011-1.374,1.128-2.48,2.5-2.48c0.006,0,0.013,0,0.02,0
				c1.381,0.011,2.491,1.139,2.48,2.52l-0.016,2C244.534,155.122,243.417,156.229,242.045,156.229z"/>
		</g>
		<g>
			<path fill="#EFEFEF" d="M127.999,177.077c-14.792,0-29.142-4.219-41.498-12.201c-1.16-0.75-1.493-2.297-0.744-3.457
				c0.75-1.161,2.298-1.493,3.457-0.744c11.546,7.459,24.958,11.401,38.785,11.401c39.56,0,71.578-32.012,71.578-71.576
				c0-19.118-7.445-37.093-20.965-50.613c-0.977-0.976-0.977-2.559,0-3.535c0.977-0.977,2.559-0.977,3.535,0
				c14.464,14.464,22.43,33.694,22.43,54.148C204.577,142.824,170.328,177.077,127.999,177.077z M78.227,158.7
				c-1.5-1.286-2.972-2.648-4.375-4.052c-0.977-0.976-0.977-2.559,0-3.535c0.976-0.977,2.56-0.977,3.535,0
				c1.313,1.313,2.69,2.588,4.093,3.791c1.048,0.898,1.17,2.477,0.271,3.525C80.854,159.477,79.276,159.599,78.227,158.7z"/>
		</g>
		<path d="M46.82,105.68c0.01,0,0.01-0.01,0.01-0.02c-0.09-1.36-1.29-2.42-2.66-2.33c-1.311,0.079-2.425,1.218-2.34,2.65
			c0.09,1.31,1.18,2.34,2.5,2.34C45.798,108.32,46.902,107.086,46.82,105.68z"/>
		<path d="M35.76,135.12c3.81,10.16,9.25,19.56,16.17,27.94c0.75,0.92,2.14,1.17,3.17,0.57l8.93-5.15
			c11.88,13.09,27.724,22.54,45.75,26.43v10.3c0,1.23,0.88,2.27,2.09,2.47c10.537,1.76,21.742,1.761,32.26,0
			c1.21-0.2,2.09-1.24,2.09-2.47v-10.3c18.063-3.898,33.894-13.367,45.75-26.43l8.93,5.15c1.03,0.6,2.42,0.35,3.17-0.57
			c6.921-8.38,12.36-17.78,16.16-27.94c0.44-1.15-0.02-2.43-1.08-3.04l-8.939-5.16c2.74-8.53,4.12-17.42,4.12-26.42
			c0-9.01-1.38-17.9-4.12-26.42l8.939-5.16c1.061-0.61,1.521-1.89,1.08-3.04c-3.8-10.16-9.239-19.56-16.16-27.94
			c-0.75-0.92-2.14-1.17-3.17-0.57l-8.93,5.15c-12.148-13.385-28.134-22.637-45.75-26.42V5.79c0-1.23-0.88-2.27-2.09-2.47
			c-10.53-1.75-21.72-1.75-32.26,0c-1.21,0.2-2.09,1.24-2.09,2.47v10.3c-17.647,3.809-33.613,13.057-45.75,26.43l-8.93-5.15
			c-1.03-0.6-2.42-0.34-3.17,0.57c-6.92,8.38-12.36,17.78-16.17,27.94c-0.43,1.15,0.03,2.43,1.1,3.04l8.93,5.16
			c-2.24,6.98-3.59,14.25-4,21.61c-0.067,1.482,1.093,2.573,2.36,2.63c1.39,0.08,2.56-0.98,2.64-2.35
			c0.42-7.6,1.89-15.07,4.38-22.22c0.39-1.13-0.07-2.38-1.11-2.98l-8.85-5.11c3.3-8.22,7.76-15.92,13.25-22.89l8.84,5.1
			c1.01,0.59,2.38,0.35,3.14-0.53c11.97-13.85,28.42-23.35,46.3-26.74c1.18-0.23,2.04-1.26,2.04-2.46V7.93
			c8.68-1.24,17.78-1.23,26.44,0v10.21c0,1.2,0.86,2.23,2.04,2.46c17.88,3.39,34.32,12.89,46.3,26.74
			c0.76,0.88,2.13,1.12,3.141,0.53l8.84-5.1c5.49,6.97,9.95,14.67,13.25,22.89l-8.851,5.11c-1.04,0.59-1.51,1.85-1.109,2.98
			c2.989,8.59,4.5,17.59,4.5,26.75c0,15.172-4.189,25.38-4.34,26.38c-0.641,1.18-0.21,2.68,0.949,3.35l8.851,5.11
			c-3.3,8.22-7.76,15.92-13.25,22.89l-8.84-5.1c-1.011-0.59-2.381-0.35-3.141,0.53c-11.979,13.85-28.42,23.35-46.3,26.74
			c-1.18,0.23-2.04,1.26-2.04,2.46v10.21c-8.66,1.23-17.77,1.23-26.44,0v-10.21c0-1.2-0.86-2.23-2.04-2.46
			c-17.88-3.39-34.33-12.89-46.3-26.74c-0.76-0.88-2.13-1.12-3.14-0.53l-8.84,5.1c-5.49-6.97-9.95-14.67-13.25-22.89l8.85-5.11
			c1.04-0.6,1.5-1.85,1.11-2.98c-1.35-3.89-2.41-7.91-3.16-11.96c-0.25-1.34-1.57-2.25-2.91-2.01c-1.366,0.249-2.26,1.557-2.01,2.91
			c0.67,3.62,1.57,7.23,2.7,10.73l-8.93,5.16C35.79,132.69,35.33,133.97,35.76,135.12z"/>
		<path d="M128.009,166.201c36.899,0,65.688-29.996,65.688-65.701c0-36.225-29.472-65.697-65.697-65.697
			c-36.225,0-65.697,29.472-65.697,65.697C62.303,136.772,91.731,166.201,128.009,166.201z M77.736,134.504v-12.576
			c0-6.112,4.973-11.085,11.085-11.085h10.886c6.076,0,11.085,4.906,11.085,11.085v36.803
			C97.555,154.905,85.672,146.219,77.736,134.504z M87.09,88.78V85.6c0-0.53,0.44-0.96,0.97-0.96H98.2
			c2.789,0,4.451-1.036,6.33-2.01c0.361,2.272-0.196,4.42-1.46,6.15H87.09z M87.089,93.783h14.644v4.735
			c0,4.037-3.285,7.322-7.322,7.322s-7.322-3.285-7.322-7.322V93.783z M115.792,159.936v-38.008c0-3.843-1.398-7.541-3.798-10.383
			c1.444-4.539,5.707-7.721,10.563-7.721h10.886c4.855,0,9.119,3.182,10.563,7.721c-2.325,2.74-3.799,6.432-3.799,10.383v38.009
			C132.189,161.587,123.838,161.588,115.792,159.936z M136.803,81.764H120.83V78.58c0-0.53,0.43-0.96,0.96-0.96
			c12.923,0,11.774,0.444,16.479-2.01C138.632,77.876,138.072,80.013,136.803,81.764z M120.825,86.764h14.644v4.735
			c0,4.037-3.284,7.322-7.322,7.322s-7.322-3.285-7.322-7.322V86.764z M145.208,158.727v-36.799c0-6.135,4.981-11.085,11.085-11.085
			h10.886c6.112,0,11.085,4.973,11.085,11.085v12.576C170.336,146.199,158.46,154.882,145.208,158.727z M170.544,88.783H154.56V85.6
			c0.01-0.53,0.44-0.96,0.971-0.97h10.14c2.845,0,4.528-1.056,6.33-2C172.355,84.885,171.815,87.026,170.544,88.783z
			 M154.561,93.783h14.644v4.735c0,4.037-3.284,7.322-7.321,7.322s-7.322-3.285-7.322-7.322V93.783z M128,39.804
			c33.469,0,60.697,27.229,60.697,60.697c0,8.74-1.865,17.271-5.434,25.109v-3.682c0-7.43-5.071-13.681-11.928-15.521
			c1.788-2.139,2.868-4.89,2.868-7.89v-6.317c3.261-4.064,3.814-9.562,1.466-14.261c-0.639-1.279-2.19-1.721-3.39-1.1
			c-4.478,2.334-5.047,2.8-6.61,2.8h-10.14c-3.29,0-5.961,2.67-5.971,5.96c0,2.169,0.001,7.888,0.001,12.918
			c0,2.969,1.055,5.695,2.81,7.824c-1.533,0.383-2.993,0.989-4.346,1.804c-2.004-4.308-5.834-7.536-10.413-8.771
			c1.782-2.137,2.857-4.883,2.857-7.877v-6.315c3.265-4.079,3.811-9.614,1.461-14.264c-0.642-1.285-2.171-1.719-3.39-1.1
			c-4.523,2.374-5.004,2.8-6.61,2.8h-10.14c-3.28,0-5.96,2.67-5.96,5.96c-0.009,5.027-0.005,7.893-0.005,12.919
			c0,2.968,1.055,5.693,2.809,7.822c-4.686,1.186-8.619,4.442-10.658,8.826c-1.283-0.773-2.661-1.36-4.106-1.745
			c1.785-2.138,2.863-4.887,2.863-7.884v-6.316c3.29-4.096,3.797-9.603,1.467-14.262c-0.646-1.273-2.183-1.724-3.39-1.1
			c-4.594,2.394-5.051,2.8-6.61,2.8H88.06c-3.29,0-5.96,2.67-5.97,5.96c0,2.178,0,6.411,0,12.918c0,2.97,1.057,5.698,2.813,7.828
			c-6.978,1.757-12.166,8.067-12.166,15.582v3.686c-3.568-7.835-5.433-16.368-5.433-25.113C67.303,67.032,94.532,39.804,128,39.804z
			"/>
		<path d="M57.05,179.89c2.146-2.249,5.63-2.229,7.78-0.1c0,0,23.558,23.557,23.58,23.58c0.01,0,0.01,0.01,0.02,0.01
			c2.106,2.619,8.377,7.756,8.56,21.64L97,251.5c0,1.38,1.12,2.5,2.5,2.5c1.38,0,2.5-1.12,2.5-2.5l-0.01-26.5
			c-0.058-9.702-2.989-18.119-9.97-25.1c-0.94-0.94-23.58-23.56-23.65-23.64c-4.191-4.191-10.955-4.029-14.95,0.19c0,0,0,0,0,0.01
			c-3.937,4.085-3.739,10.631,0.29,14.68l11.05,11.05c2.44,2.439,2.445,6.448-0.08,8.89c-2.383,2.317-6.541,2.139-8.95-0.27
			l-5.7-5.7c-0.964-0.965-2.549-0.981-3.53,0c-0.98,0.98-0.98,2.57,0,3.54l5.69,5.7c4.41,4.371,11.646,4.505,15.97,0.33
			c4.414-4.272,4.665-11.484,0.14-16.03L57.25,187.6c-2.036-2.035-2.336-5.462-0.21-7.7L57.05,179.89z"/>
		<path d="M27.05,180.06l-0.32-28.36c-0.02-6.17-5.05-11.2-11.22-11.2c-6.19,0.01-11.23,5.05-11.23,11.23l0.32,39.1
			c0,3.17,1.29,6.28,3.55,8.52l46.1,46.11v6.04c0,1.38,1.12,2.5,2.5,2.5c1.38,0,2.5-1.12,2.5-2.5v-7.07c0-0.67-0.26-1.29-0.73-1.77
			l-46.84-46.85c-1.34-1.33-2.08-3.11-2.08-5l-0.32-39.1c0-3.42,2.8-6.2,6.24-6.21c3.42,0.01,6.2,2.8,6.21,6.23l0.32,28.36
			c0.01,2.65,1.05,5.15,2.92,7.03l7.38,7.39c0.95,0.94,2.59,0.94,3.54,0c0.97-0.98,0.98-2.56,0-3.54l-7.38-7.39
			C27.58,182.66,27.05,181.37,27.05,180.06z"/>
		<path d="M39.42,198.04c-1.002,1.023-0.946,2.594,0,3.54c1.032,1.01,2.601,0.938,3.54,0c0.938-0.939,1.01-2.508,0-3.54
			C42.01,197.1,40.37,197.1,39.42,198.04z"/>
		<path d="M201.75,251.5v-6.04l19.06-19.07c0.98-0.97,0.98-2.56,0-3.53c-0.939-0.94-2.58-0.94-3.52-0.01
			c-0.01,0-0.01,0.01-0.01,0.01l-19.801,19.8c-0.46,0.47-0.729,1.11-0.729,1.77v7.07c0,1.38,1.12,2.5,2.5,2.5
			S201.75,252.88,201.75,251.5z"/>
		<path d="M227.89,219.32c0.97-0.97,0.97-2.56,0-3.53c-0.95-0.95-2.6-0.95-3.54,0c-0.964,0.964-0.98,2.548,0,3.53
			C225.287,220.277,226.872,220.339,227.89,219.32z"/>
		<path d="M251.399,190.81l0.32-39.06c0-6.19-5.04-11.24-11.22-11.25c-6.181,0-11.21,5.03-11.23,11.2l-0.319,28.33v0.03
			c0,1.33-0.521,2.58-1.46,3.52l-27.221,27.23c-2.362,2.381-6.542,2.611-8.95,0.27c-2.463-2.364-2.6-6.359-0.079-8.9l11.05-11.04
			c4.076-4.097,4.183-10.64,0.27-14.7c-3.935-4.157-10.7-4.421-14.93-0.17c-0.001,0.001-23.73,23.719-23.73,23.72
			c-6.823,6.964-9.849,15.161-9.89,24.99L154,251.5c0,1.38,1.12,2.5,2.5,2.5s2.5-1.12,2.5-2.5v-0.01l0.01-26.49
			c0.12-9.09,2.67-15.54,8.521-21.57c0.031-0.039,23.665-23.665,23.63-23.63c2.116-2.117,5.62-2.185,7.79,0.09
			c2.131,2.22,1.843,5.667-0.2,7.71l-11.05,11.05c-4.503,4.524-4.313,11.72,0.14,16.03c4.305,4.156,11.524,4.066,15.96-0.33
			l27.23-27.23c1.869-1.88,2.909-4.37,2.92-7.03l0.319-28.33v-0.03c0-3.43,2.8-6.22,6.221-6.23c3.439,0.01,6.229,2.8,6.229,6.23
			l-0.32,39.06c0,1.91-0.739,3.69-2.069,5.02l-12.91,12.91c-0.98,0.981-0.968,2.562,0,3.53c0.95,0.95,2.59,0.95,3.54,0l12.899-12.9
			C250.109,197.11,251.399,194,251.399,190.81z"/>
	</g>
</g>
</svg>
