<?xml version="1.0" encoding="UTF-8"?>
<svg version="1.1" xmlns="http://www.w3.org/2000/svg" width="512" height="512">
<path d="M0 0 C4.90203297 2.27594388 7.58929333 5.17858665 10 10 C10.01897251 11.50254041 10.0062098 13.00563564 9.97123718 14.50788879 C10.65821108 22.03101093 15.99855049 26.22766654 21.14770508 31.2487793 C22.22699259 32.33372008 23.30433105 33.42060269 24.37986755 34.50926208 C27.29352633 37.4467755 30.23442725 40.35550466 33.18186784 43.25907111 C36.26432025 46.30375611 39.32311472 49.3720453 42.38517761 52.43721008 C47.52573449 57.57584351 52.68355275 62.69661713 57.8527832 67.80639648 C63.8331301 73.71826057 69.78846167 79.65441707 75.73044282 85.60482472 C81.44813239 91.33003026 87.1799182 97.04089641 92.9194088 102.74424171 C95.36242883 105.17200785 97.8009456 107.60416991 100.23609352 110.03983116 C103.09974222 112.90235215 105.9756613 115.75194654 108.86170387 118.59188271 C109.92057914 119.63772059 110.97522079 120.68786422 112.02534103 121.74249268 C113.45526162 123.17708508 114.90203185 124.59482471 116.34968567 126.01152039 C117.1558775 126.81063182 117.96206934 127.60974325 118.79269123 128.43307018 C120.84277652 130.23755011 120.84277652 130.23755011 123.15099621 129.85865498 C125.76200509 128.64613406 127.60568631 126.91789547 129.75 125 C136.60892146 119.25382909 144.07957936 115.10923498 152 111 C152.60827637 110.67757324 153.21655273 110.35514648 153.84326172 110.02294922 C171.13729771 100.94607397 190.50609099 96 210 96 C210 74.22 210 52.44 210 30 C208.02 29.01 208.02 29.01 206 28 C202.34219085 24.13897923 201.6845896 21.31354349 201.5 16 C201.74843764 9.3087462 203.6856245 6.19865673 208.5 1.625 C213.66500009 -0.77303575 218.4002288 -0.75381535 224 0 C228.8846525 2.26787438 231.73212562 5.1153475 234 10 C234.7151028 15.31219223 235.17541421 20.91183266 232.25 25.625 C230 28 230 28 226 30 C226 51.78 226 73.56 226 96 C228.97 96 231.94 96 235 96 C261.79306835 99.21830802 288.89953676 109.31416699 309.0625 127.625 C311.6170365 130.22856475 311.6170365 130.22856475 313.89532185 129.91037655 C316.72699553 128.68553877 318.41731883 126.97948506 320.61235046 124.80897522 C321.53354675 123.90490936 322.45474304 123.00084351 323.40385437 122.06938171 C324.41744079 121.05953125 325.43084724 120.04950012 326.4440918 119.03930664 C327.51636256 117.9809238 328.58922286 116.92313794 329.66262817 115.86590576 C332.57705858 112.99082493 335.48143864 110.1057981 338.38291526 107.21765065 C340.19673346 105.41262949 342.01229664 103.60938172 343.82840919 101.80666924 C349.51264796 96.16345204 355.19084361 90.51425681 360.86039799 84.85628611 C367.40041944 78.32970081 373.95955984 71.82317692 380.5361945 65.33349138 C385.62140616 60.31318655 390.68913564 55.27566431 395.74400073 50.22480673 C398.76207043 47.20987763 401.78694825 44.20264267 404.8301754 41.2130909 C407.694295 38.39851302 410.53603066 35.56309988 413.3623085 32.71054077 C414.40058049 31.66996265 415.4465271 30.63697478 416.50070763 29.6125164 C423.32104434 23.17167719 423.32104434 23.17167719 426.02302551 14.51560974 C426.00552152 13.72702796 425.98801752 12.93844618 425.9699831 12.12596798 C426.02051415 8.54707069 427.70362971 6.6066906 430 4 C433.81930172 0.37166337 436.88279006 -0.31000458 442 -0.5 C448.6912538 -0.25156236 451.80134327 1.6856245 456.375 6.5 C458.77303575 11.66500009 458.75381535 16.4002288 458 22 C455.72405612 26.90203297 452.82141335 29.58929333 448 32 C446.49745959 32.01897251 444.99436436 32.0062098 443.49211121 31.97123718 C435.96898907 32.65821108 431.77233346 37.99855049 426.7512207 43.14770508 C425.66627992 44.22699259 424.57939731 45.30433105 423.49073792 46.37986755 C420.5532245 49.29352633 417.64449534 52.23442725 414.74092889 55.18186784 C411.69624389 58.26432025 408.6279547 61.32311472 405.56278992 64.38517761 C400.42415649 69.52573449 395.30338287 74.68355275 390.19360352 79.8527832 C384.28173943 85.8331301 378.34558293 91.78846167 372.39517528 97.73044282 C366.66996974 103.44813239 360.95910359 109.1799182 355.25575829 114.9194088 C352.82799215 117.36242883 350.39583009 119.8009456 347.96016884 122.23609352 C345.09764785 125.09974222 342.24805346 127.9756613 339.40811729 130.86170387 C338.36227941 131.92057914 337.31213578 132.97522079 336.25750732 134.02534103 C334.82291492 135.45526162 333.40517529 136.90203185 331.98847961 138.34968567 C331.18936818 139.1558775 330.39025675 139.96206934 329.56692982 140.79269123 C327.76244989 142.84277652 327.76244989 142.84277652 328.14134502 145.15099621 C329.35386594 147.76200509 331.08210453 149.60568631 333 151.75 C338.74617091 158.60892146 342.89076502 166.07957936 347 174 C347.32242676 174.60827637 347.64485352 175.21655273 347.97705078 175.84326172 C357.05392603 193.13729771 362 212.50609099 362 232 C383.78 232 405.56 232 428 232 C428.66 230.68 429.32 229.36 430 228 C433.86102077 224.34219085 436.68645651 223.6845896 442 223.5 C448.6912538 223.74843764 451.80134327 225.6856245 456.375 230.5 C458.77303575 235.66500009 458.75381535 240.4002288 458 246 C455.73212562 250.8846525 452.8846525 253.73212562 448 256 C442.68780777 256.7151028 437.08816734 257.17541421 432.375 254.25 C430 252 430 252 428 248 C406.22 248 384.44 248 362 248 C362 250.97 362 253.94 362 257 C358.97380572 282.19368243 349.37600657 315.5128435 329.27929688 332.45019531 C327.77821068 333.89968992 327.77821068 333.89968992 328.1581049 335.80859089 C329.28915003 338.75264247 330.97332318 340.36959391 333.19102478 342.61235046 C334.54712357 343.9941449 334.54712357 343.9941449 335.93061829 345.40385437 C336.94046875 346.41744079 337.95049988 347.43084724 338.96069336 348.4440918 C340.0190762 349.51636256 341.07686206 350.58922286 342.13409424 351.66262817 C345.00917507 354.57705858 347.8942019 357.48143864 350.78234935 360.38291526 C352.58737051 362.19673346 354.39061828 364.01229664 356.19333076 365.82840919 C361.83654796 371.51264796 367.48574319 377.19084361 373.14371389 382.86039799 C379.67029919 389.40041944 386.17682308 395.95955984 392.66650862 402.5361945 C397.68681345 407.62140616 402.72433569 412.68913564 407.77519327 417.74400073 C410.79012237 420.76207043 413.79735733 423.78694825 416.7869091 426.8301754 C419.60148698 429.694295 422.43690012 432.53603066 425.28945923 435.3623085 C426.33003735 436.40058049 427.36302522 437.4465271 428.3874836 438.50070763 C434.82832281 445.32104434 434.82832281 445.32104434 443.48439026 448.02302551 C444.27297204 448.00552152 445.06155382 447.98801752 445.87403202 447.9699831 C449.45292931 448.02051415 451.3933094 449.70362971 454 452 C457.62833663 455.81930172 458.31000458 458.88279006 458.5 464 C458.25156236 470.6912538 456.3143755 473.80134327 451.5 478.375 C446.33499991 480.77303575 441.5997712 480.75381535 436 480 C431.09796703 477.72405612 428.41070667 474.82141335 426 470 C425.98102749 468.49745959 425.9937902 466.99436436 426.02876282 465.49211121 C425.34178892 457.96898907 420.00144951 453.77233346 414.85229492 448.7512207 C413.77300741 447.66627992 412.69566895 446.57939731 411.62013245 445.49073792 C408.70647367 442.5532245 405.76557275 439.64449534 402.81813216 436.74092889 C399.73567975 433.69624389 396.67688528 430.6279547 393.61482239 427.56278992 C388.47426551 422.42415649 383.31644725 417.30338287 378.1472168 412.19360352 C372.1668699 406.28173943 366.21153833 400.34558293 360.26955718 394.39517528 C354.55186761 388.66996974 348.8200818 382.95910359 343.0805912 377.25575829 C340.63757117 374.82799215 338.1990544 372.39583009 335.76390648 369.96016884 C332.90025778 367.09764785 330.0243387 364.24805346 327.13829613 361.40811729 C326.07942086 360.36227941 325.02477921 359.31213578 323.97465897 358.25750732 C322.54473838 356.82291492 321.09796815 355.40517529 319.65031433 353.98847961 C318.8441225 353.18936818 318.03793066 352.39025675 317.20730877 351.56692982 C315.15600127 349.75940746 315.15600127 349.75940746 312.84192371 350.15281963 C310.38763643 351.28165248 308.60912732 352.79888016 306.5625 354.5625 C284.1999724 372.8295647 254.87793259 384 226 384 C226 405.78 226 427.56 226 450 C227.32 450.66 228.64 451.32 230 452 C233.65780915 455.86102077 234.3154104 458.68645651 234.5 464 C234.25156236 470.6912538 232.3143755 473.80134327 227.5 478.375 C222.33499991 480.77303575 217.5997712 480.75381535 212 480 C207.1153475 477.73212562 204.26787438 474.8846525 202 470 C201.2848972 464.68780777 200.82458579 459.08816734 203.75 454.375 C206 452 206 452 210 450 C210 428.22 210 406.44 210 384 C207.03 384 204.06 384 201 384 C175.80631757 380.97380572 142.4871565 371.37600657 125.54980469 351.27929688 C124.10031008 349.77821068 124.10031008 349.77821068 122.19140911 350.1581049 C119.24735753 351.28915003 117.63040609 352.97332318 115.38764954 355.19102478 C114.0058551 356.54712357 114.0058551 356.54712357 112.59614563 357.93061829 C111.58255921 358.94046875 110.56915276 359.95049988 109.5559082 360.96069336 C108.48363744 362.0190762 107.41077714 363.07686206 106.33737183 364.13409424 C103.42294142 367.00917507 100.51856136 369.8942019 97.61708474 372.78234935 C95.80326654 374.58737051 93.98770336 376.39061828 92.17159081 378.19333076 C86.48735204 383.83654796 80.80915639 389.48574319 75.13960201 395.14371389 C68.59958056 401.67029919 62.04044016 408.17682308 55.4638055 414.66650862 C50.37859384 419.68681345 45.31086436 424.72433569 40.25599927 429.77519327 C37.23792957 432.79012237 34.21305175 435.79735733 31.1698246 438.7869091 C28.305705 441.60148698 25.46396934 444.43690012 22.6376915 447.28945923 C21.59941951 448.33003735 20.5534729 449.36302522 19.49929237 450.3874836 C12.67895566 456.82832281 12.67895566 456.82832281 9.97697449 465.48439026 C10.00323048 466.66726293 10.00323048 466.66726293 10.0300169 467.87403202 C9.97948585 471.45292931 8.29637029 473.3933094 6 476 C2.18069828 479.62833663 -0.88279006 480.31000458 -6 480.5 C-12.6912538 480.25156236 -15.80134327 478.3143755 -20.375 473.5 C-22.77303575 468.33499991 -22.75381535 463.5997712 -22 458 C-19.72405612 453.09796703 -16.82141335 450.41070667 -12 448 C-10.49745959 447.98102749 -8.99436436 447.9937902 -7.49211121 448.02876282 C0.03101093 447.34178892 4.22766654 442.00144951 9.2487793 436.85229492 C10.33372008 435.77300741 11.42060269 434.69566895 12.50926208 433.62013245 C15.4467755 430.70647367 18.35550466 427.76557275 21.25907111 424.81813216 C24.30375611 421.73567975 27.3720453 418.67688528 30.43721008 415.61482239 C35.57584351 410.47426551 40.69661713 405.31644725 45.80639648 400.1472168 C51.71826057 394.1668699 57.65441707 388.21153833 63.60482472 382.26955718 C69.33003026 376.55186761 75.04089641 370.8200818 80.74424171 365.0805912 C83.17200785 362.63757117 85.60416991 360.1990544 88.03983116 357.76390648 C90.90235215 354.90025778 93.75194654 352.0243387 96.59188271 349.13829613 C97.63772059 348.07942086 98.68786422 347.02477921 99.74249268 345.97465897 C101.17708508 344.54473838 102.59482471 343.09796815 104.01152039 341.65031433 C104.81063182 340.8441225 105.60974325 340.03793066 106.43307018 339.20730877 C108.24059254 337.15600127 108.24059254 337.15600127 107.84718037 334.84192371 C106.71834752 332.38763643 105.20111984 330.60912732 103.4375 328.5625 C85.1704353 306.1999724 74 276.87793259 74 248 C52.22 248 30.44 248 8 248 C7.01 249.98 7.01 249.98 6 252 C2.13897923 255.65780915 -0.68645651 256.3154104 -6 256.5 C-12.6912538 256.25156236 -15.80134327 254.3143755 -20.375 249.5 C-22.77303575 244.33499991 -22.75381535 239.5997712 -22 234 C-19.73212562 229.1153475 -16.8846525 226.26787438 -12 224 C-6.68780777 223.2848972 -1.08816734 222.82458579 3.625 225.75 C6 228 6 228 8 232 C29.78 232 51.56 232 74 232 C74 229.03 74 226.06 74 223 C77.21830802 196.20693165 87.31416699 169.10046324 105.625 148.9375 C108.22856475 146.3829635 108.22856475 146.3829635 107.91037655 144.10467815 C106.68553877 141.27300447 104.97948506 139.58268117 102.80897522 137.38764954 C101.90490936 136.46645325 101.00084351 135.54525696 100.06938171 134.59614563 C99.05953125 133.58255921 98.04950012 132.56915276 97.03930664 131.5559082 C95.9809238 130.48363744 94.92313794 129.41077714 93.86590576 128.33737183 C90.99082493 125.42294142 88.1057981 122.51856136 85.21765065 119.61708474 C83.41262949 117.80326654 81.60938172 115.98770336 79.80666924 114.17159081 C74.16345204 108.48735204 68.51425681 102.80915639 62.85628611 97.13960201 C56.32970081 90.59958056 49.82317692 84.04044016 43.33349138 77.4638055 C38.31318655 72.37859384 33.27566431 67.31086436 28.22480673 62.25599927 C25.20987763 59.23792957 22.20264267 56.21305175 19.2130909 53.1698246 C16.39851302 50.305705 13.56309988 47.46396934 10.71054077 44.6376915 C9.66996265 43.59941951 8.63697478 42.5534729 7.6125164 41.49929237 C1.17167719 34.67895566 1.17167719 34.67895566 -7.48439026 31.97697449 C-8.27297204 31.99447848 -9.06155382 32.01198248 -9.87403202 32.0300169 C-13.45292931 31.97948585 -15.3933094 30.29637029 -18 28 C-21.62833663 24.18069828 -22.31000458 21.11720994 -22.5 16 C-22.25156236 9.3087462 -20.3143755 6.19865673 -15.5 1.625 C-10.33499991 -0.77303575 -5.5997712 -0.75381535 0 0 Z " fill="#4BE0A1" transform="translate(38,16)"/>
<path d="M0 0 C4.8846525 2.26787438 7.73212562 5.1153475 10 10 C10.7151028 15.31219223 11.17541421 20.91183266 8.25 25.625 C6 28 6 28 2 30 C2 51.78 2 73.56 2 96 C4.97 96 7.94 96 11 96 C37.79306835 99.21830802 64.89953676 109.31416699 85.0625 127.625 C87.6170365 130.22856475 87.6170365 130.22856475 89.89532185 129.91037655 C92.72699553 128.68553877 94.41731883 126.97948506 96.61235046 124.80897522 C97.53354675 123.90490936 98.45474304 123.00084351 99.40385437 122.06938171 C100.41744079 121.05953125 101.43084724 120.04950012 102.4440918 119.03930664 C103.51636256 117.9809238 104.58922286 116.92313794 105.66262817 115.86590576 C108.57705858 112.99082493 111.48143864 110.1057981 114.38291526 107.21765065 C116.19673346 105.41262949 118.01229664 103.60938172 119.82840919 101.80666924 C125.51264796 96.16345204 131.19084361 90.51425681 136.86039799 84.85628611 C143.40041944 78.32970081 149.95955984 71.82317692 156.5361945 65.33349138 C161.62140616 60.31318655 166.68913564 55.27566431 171.74400073 50.22480673 C174.76207043 47.20987763 177.78694825 44.20264267 180.8301754 41.2130909 C183.694295 38.39851302 186.53603066 35.56309988 189.3623085 32.71054077 C190.40058049 31.66996265 191.4465271 30.63697478 192.50070763 29.6125164 C199.32104434 23.17167719 199.32104434 23.17167719 202.02302551 14.51560974 C202.00552152 13.72702796 201.98801752 12.93844618 201.9699831 12.12596798 C202.02051415 8.54707069 203.70362971 6.6066906 206 4 C209.81930172 0.37166337 212.88279006 -0.31000458 218 -0.5 C224.6912538 -0.25156236 227.80134327 1.6856245 232.375 6.5 C234.77303575 11.66500009 234.75381535 16.4002288 234 22 C231.72405612 26.90203297 228.82141335 29.58929333 224 32 C222.49745959 32.01897251 220.99436436 32.0062098 219.49211121 31.97123718 C211.96898907 32.65821108 207.77233346 37.99855049 202.7512207 43.14770508 C201.66627992 44.22699259 200.57939731 45.30433105 199.49073792 46.37986755 C196.5532245 49.29352633 193.64449534 52.23442725 190.74092889 55.18186784 C187.69624389 58.26432025 184.6279547 61.32311472 181.56278992 64.38517761 C176.42415649 69.52573449 171.30338287 74.68355275 166.19360352 79.8527832 C160.28173943 85.8331301 154.34558293 91.78846167 148.39517528 97.73044282 C142.66996974 103.44813239 136.95910359 109.1799182 131.25575829 114.9194088 C128.82799215 117.36242883 126.39583009 119.8009456 123.96016884 122.23609352 C121.09764785 125.09974222 118.24805346 127.9756613 115.40811729 130.86170387 C114.36227941 131.92057914 113.31213578 132.97522079 112.25750732 134.02534103 C110.82291492 135.45526162 109.40517529 136.90203185 107.98847961 138.34968567 C107.18936818 139.1558775 106.39025675 139.96206934 105.56692982 140.79269123 C103.76244989 142.84277652 103.76244989 142.84277652 104.14134502 145.15099621 C105.35386594 147.76200509 107.08210453 149.60568631 109 151.75 C114.74617091 158.60892146 118.89076502 166.07957936 123 174 C123.32242676 174.60827637 123.64485352 175.21655273 123.97705078 175.84326172 C133.05392603 193.13729771 138 212.50609099 138 232 C159.78 232 181.56 232 204 232 C204.66 230.68 205.32 229.36 206 228 C209.86102077 224.34219085 212.68645651 223.6845896 218 223.5 C224.6912538 223.74843764 227.80134327 225.6856245 232.375 230.5 C234.77303575 235.66500009 234.75381535 240.4002288 234 246 C231.73212562 250.8846525 228.8846525 253.73212562 224 256 C218.68780777 256.7151028 213.08816734 257.17541421 208.375 254.25 C206 252 206 252 204 248 C182.22 248 160.44 248 138 248 C138 250.97 138 253.94 138 257 C134.97380572 282.19368243 125.37600657 315.5128435 105.27929688 332.45019531 C103.77821068 333.89968992 103.77821068 333.89968992 104.1581049 335.80859089 C105.28915003 338.75264247 106.97332318 340.36959391 109.19102478 342.61235046 C110.09509064 343.53354675 110.99915649 344.45474304 111.93061829 345.40385437 C112.94046875 346.41744079 113.95049988 347.43084724 114.96069336 348.4440918 C116.0190762 349.51636256 117.07686206 350.58922286 118.13409424 351.66262817 C121.00917507 354.57705858 123.8942019 357.48143864 126.78234935 360.38291526 C128.58737051 362.19673346 130.39061828 364.01229664 132.19333076 365.82840919 C137.83654796 371.51264796 143.48574319 377.19084361 149.14371389 382.86039799 C155.67029919 389.40041944 162.17682308 395.95955984 168.66650862 402.5361945 C173.68681345 407.62140616 178.72433569 412.68913564 183.77519327 417.74400073 C186.79012237 420.76207043 189.79735733 423.78694825 192.7869091 426.8301754 C195.60148698 429.694295 198.43690012 432.53603066 201.28945923 435.3623085 C202.33003735 436.40058049 203.36302522 437.4465271 204.3874836 438.50070763 C210.82832281 445.32104434 210.82832281 445.32104434 219.48439026 448.02302551 C220.27297204 448.00552152 221.06155382 447.98801752 221.87403202 447.9699831 C225.45292931 448.02051415 227.3933094 449.70362971 230 452 C233.62833663 455.81930172 234.31000458 458.88279006 234.5 464 C234.25156236 470.6912538 232.3143755 473.80134327 227.5 478.375 C222.33499991 480.77303575 217.5997712 480.75381535 212 480 C207.09796703 477.72405612 204.41070667 474.82141335 202 470 C201.98102749 468.49745959 201.9937902 466.99436436 202.02876282 465.49211121 C201.34178892 457.96898907 196.00144951 453.77233346 190.85229492 448.7512207 C189.77300741 447.66627992 188.69566895 446.57939731 187.62013245 445.49073792 C184.70647367 442.5532245 181.76557275 439.64449534 178.81813216 436.74092889 C175.73567975 433.69624389 172.67688528 430.6279547 169.61482239 427.56278992 C164.47426551 422.42415649 159.31644725 417.30338287 154.1472168 412.19360352 C148.1668699 406.28173943 142.21153833 400.34558293 136.26955718 394.39517528 C130.55186761 388.66996974 124.8200818 382.95910359 119.0805912 377.25575829 C116.63757117 374.82799215 114.1990544 372.39583009 111.76390648 369.96016884 C108.90025778 367.09764785 106.0243387 364.24805346 103.13829613 361.40811729 C102.07942086 360.36227941 101.02477921 359.31213578 99.97465897 358.25750732 C98.54473838 356.82291492 97.09796815 355.40517529 95.65031433 353.98847961 C94.8441225 353.18936818 94.03793066 352.39025675 93.20730877 351.56692982 C91.15600127 349.75940746 91.15600127 349.75940746 88.84192371 350.15281963 C86.38763643 351.28165248 84.60912732 352.79888016 82.5625 354.5625 C60.1999724 372.8295647 30.87793259 384 2 384 C2 405.78 2 427.56 2 450 C3.32 450.66 4.64 451.32 6 452 C9.65780915 455.86102077 10.3154104 458.68645651 10.5 464 C10.25156236 470.6912538 8.3143755 473.80134327 3.5 478.375 C-1.66500009 480.77303575 -6.4002288 480.75381535 -12 480 C-16.8846525 477.73212562 -19.73212562 474.8846525 -22 470 C-22.7151028 464.68780777 -23.17541421 459.08816734 -20.25 454.375 C-18 452 -18 452 -14 450 C-14 428.22 -14 406.44 -14 384 C-14.99 383.67 -15.98 383.34 -17 383 C-15.94167969 382.88785156 -14.88335937 382.77570313 -13.79296875 382.66015625 C24.51414288 377.94160021 58.7440399 358.93540441 83 329 C93.80503407 314.53647036 101.54333174 299.16438257 107 282 C107.391875 280.81535156 107.78375 279.63070313 108.1875 278.41015625 C119.25382894 242.89212257 113.10490375 203.61336402 96.125 171.0625 C77.19291417 136.52366888 46.03175935 113.76508217 9 102 C7.94683594 101.6596875 6.89367187 101.319375 5.80859375 100.96875 C-1.65243783 98.74489558 -9.28465459 97.88502613 -17 97 C-15.515 96.505 -15.515 96.505 -14 96 C-14 74.22 -14 52.44 -14 30 C-15.32 29.34 -16.64 28.68 -18 28 C-21.65780915 24.13897923 -22.3154104 21.31354349 -22.5 16 C-22.25156236 9.3087462 -20.3143755 6.19865673 -15.5 1.625 C-10.33499991 -0.77303575 -5.5997712 -0.75381535 0 0 Z " fill="#3EC2A2" transform="translate(262,16)"/>
<path d="M0 0 C4.90203297 2.27594388 7.58929333 5.17858665 10 10 C10.01511034 11.50102648 9.99917018 13.0025127 9.96153259 14.50314331 C10.65027675 22.04014946 16.16124609 26.34775981 21.30297852 31.32470703 C22.39864215 32.41782915 23.49232214 33.51294257 24.58416748 34.60987854 C27.54147785 37.56976269 30.52563409 40.50114648 33.5155232 43.42806864 C36.63999051 46.49613072 39.73885318 49.58983877 42.84056091 52.68087769 C48.71232647 58.52471211 54.60664611 64.34523322 60.50948709 70.15765846 C67.23089819 76.77834182 73.92665693 83.4247145 80.62041962 90.07333207 C94.38533168 103.74426596 108.18201218 117.38272552 122 131 C120.21799313 134.85027991 117.92324595 137.2799142 114.875 140.25 C113.96492187 141.14203125 113.05484375 142.0340625 112.1171875 142.953125 C111.06917969 143.96632812 111.06917969 143.96632812 110 145 C106.7882608 141.79375483 103.58865506 138.57634956 100.40388489 135.34332275 C99.51114868 134.43758011 98.61841248 133.53183746 97.69862366 132.59864807 C97.22367525 132.1167206 96.74872684 131.63479313 96.25938606 131.1382618 C85.2801329 119.99918718 74.27449882 108.88647471 63.25426197 97.78795242 C56.88884416 91.37608731 50.53216915 84.95597671 44.19506836 78.51611328 C38.65498497 72.88624041 33.09918419 67.27244539 27.52405947 61.67726302 C24.57768223 58.71917826 21.63967642 55.75375816 18.720438 52.76886749 C15.97452016 49.96168559 13.20801729 47.17654794 10.42456436 44.40659523 C9.40973355 43.38929729 8.40253639 42.36431468 7.40393257 41.3310833 C1.06705741 34.61558989 1.06705741 34.61558989 -7.46894836 31.98944092 C-8.65516517 32.01299715 -8.65516517 32.01299715 -9.86534595 32.03702927 C-13.44731594 31.9748938 -15.38922129 30.29997172 -18 28 C-21.62833663 24.18069828 -22.31000458 21.11720994 -22.5 16 C-22.25156236 9.3087462 -20.3143755 6.19865673 -15.5 1.625 C-10.33499991 -0.77303575 -5.5997712 -0.75381535 0 0 Z " fill="#3EC1A2" transform="translate(38,16)"/>
<path d="M0 0 C3.63303084 1.69586126 5.94549046 3.73800488 8.75 6.625 C9.94882812 7.85089844 9.94882812 7.85089844 11.171875 9.1015625 C11.77515625 9.72804688 12.3784375 10.35453125 13 11 C11.48313582 14.5805505 9.38905537 16.83755683 6.62815857 19.55178833 C5.25048813 20.9140731 5.25048813 20.9140731 3.84498596 22.30387878 C2.82436691 23.30306685 1.80368928 24.3021951 0.78295898 25.30126953 C-0.29008486 26.35901204 -1.36262287 27.4172679 -2.43469238 28.47599792 C-4.74310018 30.75437047 -7.05422994 33.02993389 -9.36725044 35.3036232 C-13.0264504 38.9023323 -16.67425026 42.51244639 -20.31956482 46.12521362 C-21.5685341 47.36277756 -22.81750894 48.60033588 -24.06648922 49.83788872 C-25.0046527 50.76749967 -25.0046527 50.76749967 -25.96176898 51.71589065 C-34.44847878 60.12359122 -42.94409082 68.5220537 -51.46459961 76.89550781 C-57.21406855 82.5459254 -62.94731315 88.21226871 -68.66266006 93.89720428 C-71.68625588 96.90337239 -74.71757719 99.90071099 -77.76904488 102.87860489 C-80.64080954 105.68129234 -83.4907836 108.50442211 -86.32572174 111.34433937 C-87.36719681 112.38016418 -88.41636762 113.40831978 -89.47379112 114.42785835 C-96.31710577 120.83643094 -96.31710577 120.83643094 -99.02500916 129.48141479 C-99.00721877 130.27042616 -98.98942839 131.05943752 -98.9710989 131.87235832 C-99.01973041 135.45251351 -100.70287453 137.39245217 -103 140 C-106.81930172 143.62833663 -109.88279006 144.31000458 -115 144.5 C-121.6912538 144.25156236 -124.80134327 142.3143755 -129.375 137.5 C-131.77303575 132.33499991 -131.75381535 127.5997712 -131 122 C-128.72405612 117.09796703 -125.82141335 114.41070667 -121 112 C-119.49897352 111.98488966 -117.9974873 112.00082982 -116.49685669 112.03846741 C-108.95985054 111.34972325 -104.65224019 105.83875391 -99.67529297 100.69702148 C-98.58217085 99.60135785 -97.48705743 98.50767786 -96.39012146 97.41583252 C-93.43023731 94.45852215 -90.49885352 91.47436591 -87.57193136 88.4844768 C-84.50386928 85.36000949 -81.41016123 82.26114682 -78.31912231 79.15943909 C-72.47528789 73.28767353 -66.65476678 67.39335389 -60.84234154 61.49051291 C-54.22165818 54.76910181 -47.5752855 48.07334307 -40.92666793 41.37958038 C-27.25573404 27.61466832 -13.61727448 13.81798782 0 0 Z " fill="#3EC1A2" transform="translate(147,352)"/>
<path d="M0 0 C4.31411118 1.61985784 5.91784263 3.83568526 8 8 C29.78 8 51.56 8 74 8 C74 13.28 74 18.56 74 24 C52.22 24 30.44 24 8 24 C7.34 25.32 6.68 26.64 6 28 C2.13897923 31.65780915 -0.68645651 32.3154104 -6 32.5 C-12.6912538 32.25156236 -15.80134327 30.3143755 -20.375 25.5 C-22.77303575 20.33499991 -22.75381535 15.5997712 -22 10 C-17.52928806 0.37077428 -9.8463947 -1.34882119 0 0 Z " fill="#3EC2A2" transform="translate(38,240)"/>
<path d="M0 0 C4.88107733 5.40876136 5.3543966 8.85827132 5.27734375 16.015625 C4.77970509 21.37049732 2.24904972 23.81340277 -1.5 27.375 C-6.66500009 29.77303575 -11.4002288 29.75381535 -17 29 C-21.8846525 26.73212562 -24.73212562 23.8846525 -27 19 C-27.76084816 13.34798506 -27.77336184 8.63265277 -25.3125 3.4375 C-18.45787526 -3.787645 -8.49882803 -5.60150029 0 0 Z " fill="#4BE0A0" transform="translate(267,467)"/>
<path d="M0 0 C4.8846525 2.26787438 7.73212562 5.1153475 10 10 C10.75381535 15.5997712 10.77303575 20.33499991 8.375 25.5 C3.80134327 30.3143755 0.6912538 32.25156236 -6 32.5 C-11.09638332 32.31685859 -14.19231086 31.61242303 -18 28 C-21.47646416 22.96512087 -22.59027842 19.11743086 -22 13 C-20.73073973 7.46322685 -18.90491791 4.14417815 -14 1 C-9.81388848 -1.09305576 -4.55867052 -0.42364608 0 0 Z " fill="#4BE0A0" transform="translate(486,240)"/>
<path d="M0 0 C4.4886856 2.12621949 7.09922262 4.39811792 9 9 C10.44102312 15.46784796 10.51476439 21.21333468 7 27 C1.7561363 31.98806547 -1.96080043 32.35329282 -9.015625 32.27734375 C-14.37049732 31.77970509 -16.81340277 29.24904972 -20.375 25.5 C-22.77303575 20.33499991 -22.75381535 15.5997712 -22 10 C-17.52571507 0.36307862 -9.84966293 -1.33760855 0 0 Z " fill="#4BE0A0" transform="translate(38,240)"/>
<path d="M0 0 C4.8846525 2.26787438 7.73212562 5.1153475 10 10 C10.76084816 15.65201494 10.77336184 20.36734723 8.3125 25.5625 C3.8184614 30.29945961 -0.01315171 31.60321354 -6.43359375 32.0625 C-10.39784237 31.96595818 -13.60927448 31.05949379 -17 29 C-21.98806547 23.7561363 -22.35329282 20.03919957 -22.27734375 12.984375 C-21.77970509 7.62950268 -19.24904972 5.18659723 -15.5 1.625 C-10.33499991 -0.77303575 -5.5997712 -0.75381535 0 0 Z " fill="#4BE0A0" transform="translate(262,16)"/>
<path d="M0 0 C3.82146741 3.45751814 6.29675079 5.93657731 7.0078125 11.21875 C7.18596164 16.01690023 7.03847955 19.48442866 5 23.875 C0.42634327 28.6893755 -2.6837462 30.62656236 -9.375 30.875 C-14.49220994 30.68500458 -17.55569828 30.00333663 -21.375 26.375 C-25.33834597 21.99445972 -25.95662862 18.47609002 -25.69140625 12.76953125 C-25.0388676 7.8311832 -23.04003152 4.77168183 -19.375 1.5625 C-13.5426084 -2.69028554 -6.48106791 -3.12051418 0 0 Z " fill="#4BE0A0" transform="translate(489.375,465.625)"/>
<path d="M0 0 C4.12593192 2.87855716 7.06537651 6.00862953 8.6875 10.875 C9.20603818 15.8138636 9.23949525 19.72854834 7.0625 24.25 C3.60498186 28.07146741 1.12592269 30.54675079 -4.15625 31.2578125 C-8.95440023 31.43596164 -12.42192866 31.28847955 -16.8125 29.25 C-21.6268755 24.67634327 -23.56406236 21.5662538 -23.8125 14.875 C-23.62250458 9.75779006 -22.94083663 6.69430172 -19.3125 2.875 C-13.52969019 -2.35706602 -7.13951783 -2.4247419 0 0 Z " fill="#4BE0A0" transform="translate(39.3125,465.125)"/>
<path d="M0 0 C4.8846525 2.26787438 7.73212562 5.1153475 10 10 C10.75381535 15.5997712 10.77303575 20.33499991 8.375 25.5 C4.20621569 29.88819401 1.13470463 32.22564083 -5 32.4375 C-10.03966816 32.20327254 -13.75810676 31.22970904 -17.4375 27.5703125 C-21.72274147 22.67637196 -22.35963398 18.78539396 -22.27734375 12.50390625 C-21.72597745 7.52607807 -18.98990438 4.94040916 -15.5 1.625 C-10.33499991 -0.77303575 -5.5997712 -0.75381535 0 0 Z " fill="#4BE0A0" transform="translate(486,16)"/>
<path d="M0 0 C4.87986993 2.2656539 7.66705454 5.15465173 10 10 C10.85894054 15.92572464 10.49628747 20.98865463 7 26 C2.79658918 30.22638028 -0.83945419 32.13817147 -6.8125 32.3125 C-11.67068222 32.24885569 -14.3127617 31.33607275 -18 28 C-21.62833663 24.18069828 -22.31000458 21.11720994 -22.5 16 C-22.25156236 9.3087462 -20.3143755 6.19865673 -15.5 1.625 C-10.33499991 -0.77303575 -5.5997712 -0.75381535 0 0 Z " fill="#4BE0A1" transform="translate(38,16)"/>
<path d="M0 0 C4.49174728 1.75422004 7.88361287 4.30812456 10.5 8.375 C12.41651498 13.00657787 12.91669546 16.26021356 11.3046875 21.078125 C9.1634833 25.9363194 6.78333319 28.45567383 2 31 C-1.72799895 32.24266632 -5.12782994 32.52902513 -9 32 C-14.29112204 29.25268663 -18.09375244 25.71874267 -20 20 C-20.54225459 15.33305478 -20.4698456 11.92228952 -18.3125 7.6875 C-12.82853218 1.3142401 -8.32730703 -1.15546365 0 0 Z " fill="#3EC2A2" transform="translate(161,260)"/>
<path d="M0 0 C4.41026006 2.45014448 7.08812558 5.30125117 9.375 9.875 C9.96557744 15.55362925 9.66870905 20.04422672 6.375 24.875 C3.50430395 27.84219004 0.61618099 30.48943809 -3.625 30.875 C-4.6975 30.99875 -5.77 31.1225 -6.875 31.25 C-12.3853132 30.69896868 -16.37793506 28.46825141 -20.01953125 24.265625 C-22.33031958 20.70554121 -23.31752519 17.16959904 -23.0703125 12.92578125 C-22.06039245 8.27483366 -19.59757712 4.54302246 -15.98046875 1.484375 C-10.51483315 -2.01955392 -6.01213393 -1.86583467 0 0 Z " fill="#3EC2A2" transform="translate(329.625,317.125)"/>
<path d="M0 0 C4.54986736 4.14543471 5.82446141 7.39481217 6.12890625 13.5390625 C5.89796056 17.94802559 4.62975239 21.29031425 1.56640625 24.50390625 C-1.9444317 27.57698386 -4.59819333 28.89216872 -9.25 29.25 C-14.04917021 28.93005532 -17.9298047 27.95281309 -21.515625 24.5703125 C-25.64092226 19.8048829 -26.41351333 16.20270002 -26 10 C-24.18126531 4.13963267 -21.9082092 1.40569618 -17 -2 C-11.19690939 -4.43355413 -5.13542379 -3.34918943 0 0 Z " fill="#3EC2A2" transform="translate(266,243)"/>
<path d="M0 0 C4.54986736 4.14543471 5.82446141 7.39481217 6.12890625 13.5390625 C5.89796056 17.94802559 4.62975239 21.29031425 1.56640625 24.50390625 C-1.9444317 27.57698386 -4.59819333 28.89216872 -9.25 29.25 C-14.04917021 28.93005532 -17.9298047 27.95281309 -21.515625 24.5703125 C-25.64092226 19.8048829 -26.41351333 16.20270002 -26 10 C-24.18126531 4.13963267 -21.9082092 1.40569618 -17 -2 C-11.19690939 -4.43355413 -5.13542379 -3.34918943 0 0 Z " fill="#3EC2A2" transform="translate(298,147)"/>
</svg>
